<svg width="516" height="456" viewBox="0 0 516 456" fill="none" xmlns="http://www.w3.org/2000/svg">
<g style="mix-blend-mode:lighten" opacity="0.64" filter="url(#filter0_in_248_640)">
<path d="M406.168 110.174V110.356H516V0H405.987V110.174H406.168Z" fill="url(#paint0_linear_248_640)"/>
<path d="M406.168 422.196C406.168 461.615 390.558 499.42 362.771 527.293C334.984 555.167 297.297 570.826 258 570.826C218.703 570.826 181.016 555.167 153.229 527.293C125.442 499.42 109.832 461.615 109.832 422.196V258.804C109.88 219.399 125.506 181.623 153.282 153.76C181.059 125.897 218.718 110.222 258 110.174H296.155V0H258C189.596 0.0723679 124.015 27.3623 75.6461 75.8818C27.2774 124.401 0.0721432 190.187 0 258.804V422.196C0 490.835 27.1821 556.663 75.5665 605.198C123.951 653.733 189.574 681 258 681C326.426 681 392.049 653.733 440.434 605.198C488.818 556.663 516 490.835 516 422.196V220.53H406.168V422.196Z" fill="url(#paint1_linear_248_640)"/>
</g>
<defs>
<filter id="filter0_in_248_640" x="0" y="0" width="516" height="713" filterUnits="userSpaceOnUse" color-interpolation-filters="sRGB">
<feFlood flood-opacity="0" result="BackgroundImageFix"/>
<feBlend mode="normal" in="SourceGraphic" in2="BackgroundImageFix" result="shape"/>
<feColorMatrix in="SourceAlpha" type="matrix" values="0 0 0 0 0 0 0 0 0 0 0 0 0 0 0 0 0 0 127 0" result="hardAlpha"/>
<feOffset dy="32"/>
<feGaussianBlur stdDeviation="16"/>
<feComposite in2="hardAlpha" operator="arithmetic" k2="-1" k3="1"/>
<feColorMatrix type="matrix" values="0 0 0 0 0.0705882 0 0 0 0 0.0705882 0 0 0 0 0.0705882 0 0 0 0.16 0"/>
<feBlend mode="normal" in2="shape" result="effect1_innerShadow_248_640"/>
<feTurbulence type="fractalNoise" baseFrequency="2 2" stitchTiles="stitch" numOctaves="3" result="noise" seed="6856" />
<feColorMatrix in="noise" type="luminanceToAlpha" result="alphaNoise" />
<feComponentTransfer in="alphaNoise" result="coloredNoise1">
<feFuncA type="discrete" tableValues="1 1 1 1 1 1 1 1 1 1 1 1 1 1 1 1 1 1 1 1 1 1 1 1 1 1 1 1 1 1 1 1 1 1 1 1 1 1 1 1 1 1 1 1 1 1 1 1 1 1 1 0 0 0 0 0 0 0 0 0 0 0 0 0 0 0 0 0 0 0 0 0 0 0 0 0 0 0 0 0 0 0 0 0 0 0 0 0 0 0 0 0 0 0 0 0 0 0 0 0 "/>
</feComponentTransfer>
<feComposite operator="in" in2="effect1_innerShadow_248_640" in="coloredNoise1" result="noise1Clipped" />
<feFlood flood-color="rgba(0, 0, 0, 0.25)" result="color1Flood" />
<feComposite operator="in" in2="noise1Clipped" in="color1Flood" result="color1" />
<feMerge result="effect2_noise_248_640">
<feMergeNode in="effect1_innerShadow_248_640" />
<feMergeNode in="color1" />
</feMerge>
</filter>
<linearGradient id="paint0_linear_248_640" x1="258" y1="0" x2="258" y2="681" gradientUnits="userSpaceOnUse">
<stop stop-color="#5C5C5C"/>
<stop offset="1" stop-color="#202020"/>
</linearGradient>
<linearGradient id="paint1_linear_248_640" x1="258" y1="0" x2="258" y2="681" gradientUnits="userSpaceOnUse">
<stop stop-color="#5C5C5C"/>
<stop offset="1" stop-color="#202020"/>
</linearGradient>
</defs>
</svg>
