<svg width="24" height="28" viewBox="0 0 24 28" fill="none" xmlns="http://www.w3.org/2000/svg">
<path d="M17.9198 4.52991V4.5374H22.3896V0H17.9124V4.52991H17.9198Z" fill="white"/>
<path d="M17.9198 17.359C17.9198 18.9798 17.2844 20.5342 16.1536 21.6802C15.0227 22.8262 13.4889 23.4701 11.8896 23.4701C10.2904 23.4701 8.75658 22.8262 7.62572 21.6802C6.49486 20.5342 5.85954 18.9798 5.85954 17.359V10.641C5.8615 9.02083 6.49744 7.46761 7.62788 6.32199C8.75832 5.17637 10.291 4.53189 11.8896 4.52991H13.4425V0H11.8896C9.10578 0.00297548 6.43677 1.12503 4.46827 3.11996C2.49977 5.11488 1.39258 7.81973 1.38965 10.641V17.359C1.38965 20.1812 2.4959 22.8878 4.46503 24.8833C6.43416 26.8789 9.10488 28 11.8896 28C14.6744 28 17.3451 26.8789 19.3143 24.8833C21.2834 22.8878 22.3896 20.1812 22.3896 17.359V9.06731H17.9198V17.359Z" fill="white"/>
</svg>
