<svg width="1336" height="120" viewBox="0 0 1336 120" fill="none" xmlns="http://www.w3.org/2000/svg">
<g filter="url(#filter0_n_248_662)">
<path d="M79.2976 34.7064H62.867C62.3984 32.0119 61.5344 29.6249 60.275 27.5455C59.0156 25.4367 57.4487 23.6502 55.5742 22.1858C53.6998 20.7214 51.5618 19.623 49.1601 18.8908C46.7878 18.1294 44.2251 17.7486 41.472 17.7486C36.5809 17.7486 32.2462 18.9787 28.4681 21.4389C24.6899 23.8698 21.7318 27.443 19.5938 32.1584C17.4557 36.8445 16.3867 42.5703 16.3867 49.3359C16.3867 56.2186 17.4557 62.0176 19.5938 66.733C21.7611 71.4191 24.7192 74.963 28.4681 77.3646C32.2462 79.7369 36.5662 80.9231 41.4281 80.9231C44.1226 80.9231 46.6413 80.5717 48.9844 79.8687C51.3567 79.1365 53.4801 78.0675 55.3546 76.6617C57.2583 75.2559 58.8545 73.5279 60.1432 71.4777C61.4611 69.4275 62.3691 67.0845 62.867 64.4485L79.2976 64.5364C78.6826 68.8125 77.35 72.8249 75.2998 76.5738C73.2789 80.3227 70.6283 83.6323 67.3481 86.5025C64.0678 89.3434 60.231 91.5694 55.8378 93.1802C51.4446 94.7618 46.5681 95.5525 41.2084 95.5525C33.3006 95.5525 26.2422 93.722 20.0331 90.061C13.824 86.4 8.93288 81.1135 5.35973 74.2015C1.78658 67.2895 0 59.0009 0 49.3359C0 39.6415 1.80122 31.3529 5.40366 24.4702C9.0061 17.5582 13.9119 12.2717 20.1209 8.61071C26.33 4.94969 33.3592 3.11919 41.2084 3.11919C46.2167 3.11919 50.8735 3.8221 55.1788 5.22793C59.4842 6.63376 63.3209 8.69858 66.6891 11.4224C70.0572 14.1169 72.8249 17.4264 74.9923 21.3511C77.1889 25.2464 78.624 29.6982 79.2976 34.7064Z" fill="#E5E5F6" fill-opacity="0.32"/>
<path d="M79.2976 34.7064H62.867C62.3984 32.0119 61.5344 29.6249 60.275 27.5455C59.0156 25.4367 57.4487 23.6502 55.5742 22.1858C53.6998 20.7214 51.5618 19.623 49.1601 18.8908C46.7878 18.1294 44.2251 17.7486 41.472 17.7486C36.5809 17.7486 32.2462 18.9787 28.4681 21.4389C24.6899 23.8698 21.7318 27.443 19.5938 32.1584C17.4557 36.8445 16.3867 42.5703 16.3867 49.3359C16.3867 56.2186 17.4557 62.0176 19.5938 66.733C21.7611 71.4191 24.7192 74.963 28.4681 77.3646C32.2462 79.7369 36.5662 80.9231 41.4281 80.9231C44.1226 80.9231 46.6413 80.5717 48.9844 79.8687C51.3567 79.1365 53.4801 78.0675 55.3546 76.6617C57.2583 75.2559 58.8545 73.5279 60.1432 71.4777C61.4611 69.4275 62.3691 67.0845 62.867 64.4485L79.2976 64.5364C78.6826 68.8125 77.35 72.8249 75.2998 76.5738C73.2789 80.3227 70.6283 83.6323 67.3481 86.5025C64.0678 89.3434 60.231 91.5694 55.8378 93.1802C51.4446 94.7618 46.5681 95.5525 41.2084 95.5525C33.3006 95.5525 26.2422 93.722 20.0331 90.061C13.824 86.4 8.93288 81.1135 5.35973 74.2015C1.78658 67.2895 0 59.0009 0 49.3359C0 39.6415 1.80122 31.3529 5.40366 24.4702C9.0061 17.5582 13.9119 12.2717 20.1209 8.61071C26.33 4.94969 33.3592 3.11919 41.2084 3.11919C46.2167 3.11919 50.8735 3.8221 55.1788 5.22793C59.4842 6.63376 63.3209 8.69858 66.6891 11.4224C70.0572 14.1169 72.8249 17.4264 74.9923 21.3511C77.1889 25.2464 78.624 29.6982 79.2976 34.7064Z" fill="url(#paint0_linear_248_662)" fill-opacity="0.64"/>
<path d="M93.5207 94.3224V26.8426H109.424V94.3224H93.5207ZM101.516 17.2654C98.9975 17.2654 96.8302 16.4306 95.0144 14.7612C93.1985 13.0625 92.2906 11.027 92.2906 8.65464C92.2906 6.25302 93.1985 4.21749 95.0144 2.54806C96.8302 0.849355 98.9975 0 101.516 0C104.064 0 106.232 0.849355 108.018 2.54806C109.834 4.21749 110.742 6.25302 110.742 8.65464C110.742 11.027 109.834 13.0625 108.018 14.7612C106.232 16.4306 104.064 17.2654 101.516 17.2654Z" fill="#E5E5F6" fill-opacity="0.32"/>
<path d="M93.5207 94.3224V26.8426H109.424V94.3224H93.5207ZM101.516 17.2654C98.9975 17.2654 96.8302 16.4306 95.0144 14.7612C93.1985 13.0625 92.2906 11.027 92.2906 8.65464C92.2906 6.25302 93.1985 4.21749 95.0144 2.54806C96.8302 0.849355 98.9975 0 101.516 0C104.064 0 106.232 0.849355 108.018 2.54806C109.834 4.21749 110.742 6.25302 110.742 8.65464C110.742 11.027 109.834 13.0625 108.018 14.7612C106.232 16.4306 104.064 17.2654 101.516 17.2654Z" fill="url(#paint1_linear_248_662)" fill-opacity="0.64"/>
<path d="M187.656 94.3224H157.167V4.34929H188.271C197.204 4.34929 204.878 6.15051 211.292 9.75295C217.735 13.3261 222.685 18.4662 226.141 25.1732C229.597 31.8801 231.325 39.9051 231.325 49.248C231.325 58.6202 229.582 66.6744 226.097 73.4107C222.641 80.147 217.647 85.3163 211.116 88.9188C204.614 92.5212 196.794 94.3224 187.656 94.3224ZM173.466 80.2202H186.866C193.133 80.2202 198.361 79.078 202.549 76.7935C206.738 74.4797 209.886 71.0384 211.995 66.4694C214.104 61.8712 215.158 56.1307 215.158 49.248C215.158 42.3653 214.104 36.6541 211.995 32.1144C209.886 27.5455 206.767 24.1334 202.637 21.8782C198.537 19.5938 193.441 18.4515 187.349 18.4515H173.466V80.2202Z" fill="#E5E5F6" fill-opacity="0.32"/>
<path d="M187.656 94.3224H157.167V4.34929H188.271C197.204 4.34929 204.878 6.15051 211.292 9.75295C217.735 13.3261 222.685 18.4662 226.141 25.1732C229.597 31.8801 231.325 39.9051 231.325 49.248C231.325 58.6202 229.582 66.6744 226.097 73.4107C222.641 80.147 217.647 85.3163 211.116 88.9188C204.614 92.5212 196.794 94.3224 187.656 94.3224ZM173.466 80.2202H186.866C193.133 80.2202 198.361 79.078 202.549 76.7935C206.738 74.4797 209.886 71.0384 211.995 66.4694C214.104 61.8712 215.158 56.1307 215.158 49.248C215.158 42.3653 214.104 36.6541 211.995 32.1144C209.886 27.5455 206.767 24.1334 202.637 21.8782C198.537 19.5938 193.441 18.4515 187.349 18.4515H173.466V80.2202Z" fill="url(#paint2_linear_248_662)" fill-opacity="0.64"/>
<path d="M275.982 95.6404C269.216 95.6404 263.374 94.2346 258.453 91.4229C253.562 88.582 249.798 84.5695 247.163 79.3855C244.527 74.1722 243.209 68.0363 243.209 60.9779C243.209 54.0366 244.527 47.9447 247.163 42.7021C249.828 37.4302 253.547 33.3299 258.321 30.4011C263.095 27.443 268.704 25.9639 275.147 25.9639C279.306 25.9639 283.231 26.6376 286.921 27.9848C290.641 29.3028 293.921 31.3529 296.762 34.1353C299.632 36.9177 301.887 40.4616 303.528 44.7669C305.168 49.043 305.988 54.1391 305.988 60.0553V64.9318H250.677V54.2123H290.743C290.714 51.1664 290.055 48.4572 288.766 46.0849C287.478 43.6833 285.676 41.7942 283.363 40.4176C281.078 39.0411 278.413 38.3528 275.367 38.3528C272.116 38.3528 269.26 39.1436 266.8 40.7251C264.34 42.2774 262.422 44.3276 261.045 46.8757C259.698 49.3944 259.01 52.1622 258.98 55.1788V64.5364C258.98 68.461 259.698 71.8291 261.133 74.6408C262.568 77.4232 264.574 79.5612 267.152 81.0549C269.729 82.5193 272.746 83.2515 276.202 83.2515C278.515 83.2515 280.61 82.9294 282.484 82.285C284.358 81.6114 285.984 80.6302 287.36 79.3416C288.737 78.0529 289.777 76.4567 290.48 74.5529L305.329 76.2224C304.392 80.147 302.605 83.5737 299.969 86.5025C297.362 89.402 294.024 91.6572 289.952 93.2681C285.881 94.8496 281.225 95.6404 275.982 95.6404Z" fill="#E5E5F6" fill-opacity="0.32"/>
<path d="M275.982 95.6404C269.216 95.6404 263.374 94.2346 258.453 91.4229C253.562 88.582 249.798 84.5695 247.163 79.3855C244.527 74.1722 243.209 68.0363 243.209 60.9779C243.209 54.0366 244.527 47.9447 247.163 42.7021C249.828 37.4302 253.547 33.3299 258.321 30.4011C263.095 27.443 268.704 25.9639 275.147 25.9639C279.306 25.9639 283.231 26.6376 286.921 27.9848C290.641 29.3028 293.921 31.3529 296.762 34.1353C299.632 36.9177 301.887 40.4616 303.528 44.7669C305.168 49.043 305.988 54.1391 305.988 60.0553V64.9318H250.677V54.2123H290.743C290.714 51.1664 290.055 48.4572 288.766 46.0849C287.478 43.6833 285.676 41.7942 283.363 40.4176C281.078 39.0411 278.413 38.3528 275.367 38.3528C272.116 38.3528 269.26 39.1436 266.8 40.7251C264.34 42.2774 262.422 44.3276 261.045 46.8757C259.698 49.3944 259.01 52.1622 258.98 55.1788V64.5364C258.98 68.461 259.698 71.8291 261.133 74.6408C262.568 77.4232 264.574 79.5612 267.152 81.0549C269.729 82.5193 272.746 83.2515 276.202 83.2515C278.515 83.2515 280.61 82.9294 282.484 82.285C284.358 81.6114 285.984 80.6302 287.36 79.3416C288.737 78.0529 289.777 76.4567 290.48 74.5529L305.329 76.2224C304.392 80.147 302.605 83.5737 299.969 86.5025C297.362 89.402 294.024 91.6572 289.952 93.2681C285.881 94.8496 281.225 95.6404 275.982 95.6404Z" fill="url(#paint3_linear_248_662)" fill-opacity="0.64"/>
<path d="M377.784 26.8426L353.753 94.3224H336.18L312.149 26.8426H329.107L344.615 76.9692H345.318L360.87 26.8426H377.784Z" fill="#E5E5F6" fill-opacity="0.32"/>
<path d="M377.784 26.8426L353.753 94.3224H336.18L312.149 26.8426H329.107L344.615 76.9692H345.318L360.87 26.8426H377.784Z" fill="url(#paint4_linear_248_662)" fill-opacity="0.64"/>
<path d="M416.367 95.6404C409.602 95.6404 403.759 94.2346 398.838 91.4229C393.947 88.582 390.184 84.5695 387.548 79.3855C384.912 74.1722 383.594 68.0363 383.594 60.9779C383.594 54.0366 384.912 47.9447 387.548 42.7021C390.213 37.4302 393.933 33.3299 398.707 30.4011C403.481 27.443 409.089 25.9639 415.533 25.9639C419.692 25.9639 423.616 26.6376 427.306 27.9848C431.026 29.3028 434.306 31.3529 437.147 34.1353C440.018 36.9177 442.273 40.4616 443.913 44.7669C445.553 49.043 446.373 54.1391 446.373 60.0553V64.9318H391.062V54.2123H431.129C431.099 51.1664 430.44 48.4572 429.152 46.0849C427.863 43.6833 426.062 41.7942 423.748 40.4176C421.464 39.0411 418.798 38.3528 415.752 38.3528C412.501 38.3528 409.646 39.1436 407.186 40.7251C404.725 42.2774 402.807 44.3276 401.43 46.8757C400.083 49.3944 399.395 52.1622 399.366 55.1788V64.5364C399.366 68.461 400.083 71.8291 401.518 74.6408C402.953 77.4232 404.96 79.5612 407.537 81.0549C410.114 82.5193 413.131 83.2515 416.587 83.2515C418.901 83.2515 420.995 82.9294 422.869 82.285C424.744 81.6114 426.369 80.6302 427.746 79.3416C429.122 78.0529 430.162 76.4567 430.865 74.5529L445.714 76.2224C444.777 80.147 442.99 83.5737 440.354 86.5025C437.748 89.402 434.409 91.6572 430.338 93.2681C426.267 94.8496 421.61 95.6404 416.367 95.6404Z" fill="#E5E5F6" fill-opacity="0.32"/>
<path d="M416.367 95.6404C409.602 95.6404 403.759 94.2346 398.838 91.4229C393.947 88.582 390.184 84.5695 387.548 79.3855C384.912 74.1722 383.594 68.0363 383.594 60.9779C383.594 54.0366 384.912 47.9447 387.548 42.7021C390.213 37.4302 393.933 33.3299 398.707 30.4011C403.481 27.443 409.089 25.9639 415.533 25.9639C419.692 25.9639 423.616 26.6376 427.306 27.9848C431.026 29.3028 434.306 31.3529 437.147 34.1353C440.018 36.9177 442.273 40.4616 443.913 44.7669C445.553 49.043 446.373 54.1391 446.373 60.0553V64.9318H391.062V54.2123H431.129C431.099 51.1664 430.44 48.4572 429.152 46.0849C427.863 43.6833 426.062 41.7942 423.748 40.4176C421.464 39.0411 418.798 38.3528 415.752 38.3528C412.501 38.3528 409.646 39.1436 407.186 40.7251C404.725 42.2774 402.807 44.3276 401.43 46.8757C400.083 49.3944 399.395 52.1622 399.366 55.1788V64.5364C399.366 68.461 400.083 71.8291 401.518 74.6408C402.953 77.4232 404.96 79.5612 407.537 81.0549C410.114 82.5193 413.131 83.2515 416.587 83.2515C418.901 83.2515 420.995 82.9294 422.869 82.285C424.744 81.6114 426.369 80.6302 427.746 79.3416C429.122 78.0529 430.162 76.4567 430.865 74.5529L445.714 76.2224C444.777 80.147 442.99 83.5737 440.354 86.5025C437.748 89.402 434.409 91.6572 430.338 93.2681C426.267 94.8496 421.61 95.6404 416.367 95.6404Z" fill="url(#paint5_linear_248_662)" fill-opacity="0.64"/>
<path d="M475.731 4.34929V94.3224H459.827V4.34929H475.731Z" fill="#E5E5F6" fill-opacity="0.32"/>
<path d="M475.731 4.34929V94.3224H459.827V4.34929H475.731Z" fill="url(#paint6_linear_248_662)" fill-opacity="0.64"/>
<path d="M521.519 95.6404C514.929 95.6404 509.218 94.1906 504.386 91.2911C499.553 88.3916 495.804 84.3352 493.139 79.1219C490.503 73.9086 489.185 67.8167 489.185 60.8461C489.185 53.8755 490.503 47.7689 493.139 42.5264C495.804 37.2838 499.553 33.2127 504.386 30.3132C509.218 27.4137 514.929 25.9639 521.519 25.9639C528.109 25.9639 533.82 27.4137 538.653 30.3132C543.485 33.2127 547.219 37.2838 549.855 42.5264C552.521 47.7689 553.853 53.8755 553.853 60.8461C553.853 67.8167 552.521 73.9086 549.855 79.1219C547.219 84.3352 543.485 88.3916 538.653 91.2911C533.82 94.1906 528.109 95.6404 521.519 95.6404ZM521.607 82.9001C525.18 82.9001 528.167 81.9189 530.569 79.9566C532.971 77.965 534.757 75.2998 535.929 71.9609C537.13 68.6221 537.73 64.9025 537.73 60.8022C537.73 56.6725 537.13 52.9383 535.929 49.5995C534.757 46.2313 532.971 43.5515 530.569 41.5599C528.167 39.5683 525.18 38.5725 521.607 38.5725C517.946 38.5725 514.9 39.5683 512.469 41.5599C510.067 43.5515 508.266 46.2313 507.065 49.5995C505.894 52.9383 505.308 56.6725 505.308 60.8022C505.308 64.9025 505.894 68.6221 507.065 71.9609C508.266 75.2998 510.067 77.965 512.469 79.9566C514.9 81.9189 517.946 82.9001 521.607 82.9001Z" fill="#E5E5F6" fill-opacity="0.32"/>
<path d="M521.519 95.6404C514.929 95.6404 509.218 94.1906 504.386 91.2911C499.553 88.3916 495.804 84.3352 493.139 79.1219C490.503 73.9086 489.185 67.8167 489.185 60.8461C489.185 53.8755 490.503 47.7689 493.139 42.5264C495.804 37.2838 499.553 33.2127 504.386 30.3132C509.218 27.4137 514.929 25.9639 521.519 25.9639C528.109 25.9639 533.82 27.4137 538.653 30.3132C543.485 33.2127 547.219 37.2838 549.855 42.5264C552.521 47.7689 553.853 53.8755 553.853 60.8461C553.853 67.8167 552.521 73.9086 549.855 79.1219C547.219 84.3352 543.485 88.3916 538.653 91.2911C533.82 94.1906 528.109 95.6404 521.519 95.6404ZM521.607 82.9001C525.18 82.9001 528.167 81.9189 530.569 79.9566C532.971 77.965 534.757 75.2998 535.929 71.9609C537.13 68.6221 537.73 64.9025 537.73 60.8022C537.73 56.6725 537.13 52.9383 535.929 49.5995C534.757 46.2313 532.971 43.5515 530.569 41.5599C528.167 39.5683 525.18 38.5725 521.607 38.5725C517.946 38.5725 514.9 39.5683 512.469 41.5599C510.067 43.5515 508.266 46.2313 507.065 49.5995C505.894 52.9383 505.308 56.6725 505.308 60.8022C505.308 64.9025 505.894 68.6221 507.065 71.9609C508.266 75.2998 510.067 77.965 512.469 79.9566C514.9 81.9189 517.946 82.9001 521.607 82.9001Z" fill="url(#paint7_linear_248_662)" fill-opacity="0.64"/>
<path d="M567.351 119.627V26.8426H582.991V38.0014H583.914C584.734 36.3612 585.891 34.6186 587.384 32.7734C588.878 30.899 590.899 29.3028 593.447 27.9848C595.995 26.6376 599.246 25.9639 603.2 25.9639C608.413 25.9639 613.114 27.2965 617.302 29.9618C621.52 32.5977 624.859 36.5077 627.319 41.6917C629.808 46.8464 631.053 53.1726 631.053 60.6704C631.053 68.0803 629.838 74.3772 627.407 79.5612C624.976 84.7452 621.666 88.6991 617.478 91.4229C613.29 94.1467 608.545 95.5086 603.244 95.5086C599.378 95.5086 596.171 94.8643 593.623 93.5756C591.075 92.2869 589.025 90.7346 587.472 88.9188C585.949 87.0736 584.763 85.331 583.914 83.6908H583.255V119.627H567.351ZM582.947 60.5825C582.947 64.9464 583.562 68.7685 584.792 72.0488C586.052 75.3291 587.853 77.8918 590.196 79.7369C592.568 81.5528 595.439 82.4607 598.807 82.4607C602.321 82.4607 605.265 81.5235 607.637 79.6491C610.01 77.7453 611.796 75.1534 612.997 71.8731C614.227 68.5635 614.842 64.8 614.842 60.5825C614.842 56.3943 614.242 52.6747 613.041 49.4237C611.84 46.1727 610.053 43.6247 607.681 41.7795C605.309 39.9344 602.351 39.0118 598.807 39.0118C595.409 39.0118 592.524 39.9051 590.152 41.6917C587.78 43.4782 585.979 45.9824 584.748 49.2041C583.548 52.4258 582.947 56.2186 582.947 60.5825Z" fill="#E5E5F6" fill-opacity="0.32"/>
<path d="M567.351 119.627V26.8426H582.991V38.0014H583.914C584.734 36.3612 585.891 34.6186 587.384 32.7734C588.878 30.899 590.899 29.3028 593.447 27.9848C595.995 26.6376 599.246 25.9639 603.2 25.9639C608.413 25.9639 613.114 27.2965 617.302 29.9618C621.52 32.5977 624.859 36.5077 627.319 41.6917C629.808 46.8464 631.053 53.1726 631.053 60.6704C631.053 68.0803 629.838 74.3772 627.407 79.5612C624.976 84.7452 621.666 88.6991 617.478 91.4229C613.29 94.1467 608.545 95.5086 603.244 95.5086C599.378 95.5086 596.171 94.8643 593.623 93.5756C591.075 92.2869 589.025 90.7346 587.472 88.9188C585.949 87.0736 584.763 85.331 583.914 83.6908H583.255V119.627H567.351ZM582.947 60.5825C582.947 64.9464 583.562 68.7685 584.792 72.0488C586.052 75.3291 587.853 77.8918 590.196 79.7369C592.568 81.5528 595.439 82.4607 598.807 82.4607C602.321 82.4607 605.265 81.5235 607.637 79.6491C610.01 77.7453 611.796 75.1534 612.997 71.8731C614.227 68.5635 614.842 64.8 614.842 60.5825C614.842 56.3943 614.242 52.6747 613.041 49.4237C611.84 46.1727 610.053 43.6247 607.681 41.7795C605.309 39.9344 602.351 39.0118 598.807 39.0118C595.409 39.0118 592.524 39.9051 590.152 41.6917C587.78 43.4782 585.979 45.9824 584.748 49.2041C583.548 52.4258 582.947 56.2186 582.947 60.5825Z" fill="url(#paint8_linear_248_662)" fill-opacity="0.64"/>
<path d="M644.672 94.3224V26.8426H659.872V38.3089H660.663C662.069 34.4428 664.398 31.4262 667.649 29.2588C670.9 27.0622 674.78 25.9639 679.291 25.9639C683.859 25.9639 687.711 27.0769 690.845 29.3028C694.008 31.4994 696.234 34.5014 697.522 38.3089H698.225C699.719 34.56 702.238 31.5726 705.782 29.3467C709.355 27.0915 713.587 25.9639 718.478 25.9639C724.687 25.9639 729.754 27.9262 733.679 31.8508C737.603 35.7755 739.566 41.5013 739.566 49.0283V94.3224H723.618V51.4885C723.618 47.3003 722.505 44.2397 720.279 42.3067C718.053 40.3444 715.33 39.3633 712.108 39.3633C708.271 39.3633 705.269 40.5641 703.102 42.9657C700.964 45.338 699.895 48.4279 699.895 52.2354V94.3224H684.299V50.8296C684.299 47.3443 683.244 44.5619 681.136 42.4824C679.056 40.403 676.332 39.3633 672.964 39.3633C670.68 39.3633 668.6 39.949 666.726 41.1205C664.852 42.2628 663.358 43.8883 662.245 45.997C661.132 48.0765 660.575 50.5074 660.575 53.2898V94.3224H644.672Z" fill="#E5E5F6" fill-opacity="0.32"/>
<path d="M644.672 94.3224V26.8426H659.872V38.3089H660.663C662.069 34.4428 664.398 31.4262 667.649 29.2588C670.9 27.0622 674.78 25.9639 679.291 25.9639C683.859 25.9639 687.711 27.0769 690.845 29.3028C694.008 31.4994 696.234 34.5014 697.522 38.3089H698.225C699.719 34.56 702.238 31.5726 705.782 29.3467C709.355 27.0915 713.587 25.9639 718.478 25.9639C724.687 25.9639 729.754 27.9262 733.679 31.8508C737.603 35.7755 739.566 41.5013 739.566 49.0283V94.3224H723.618V51.4885C723.618 47.3003 722.505 44.2397 720.279 42.3067C718.053 40.3444 715.33 39.3633 712.108 39.3633C708.271 39.3633 705.269 40.5641 703.102 42.9657C700.964 45.338 699.895 48.4279 699.895 52.2354V94.3224H684.299V50.8296C684.299 47.3443 683.244 44.5619 681.136 42.4824C679.056 40.403 676.332 39.3633 672.964 39.3633C670.68 39.3633 668.6 39.949 666.726 41.1205C664.852 42.2628 663.358 43.8883 662.245 45.997C661.132 48.0765 660.575 50.5074 660.575 53.2898V94.3224H644.672Z" fill="url(#paint9_linear_248_662)" fill-opacity="0.64"/>
<path d="M785.574 95.6404C778.808 95.6404 772.965 94.2346 768.045 91.4229C763.153 88.582 759.39 84.5695 756.754 79.3855C754.118 74.1722 752.8 68.0363 752.8 60.9779C752.8 54.0366 754.118 47.9447 756.754 42.7021C759.419 37.4302 763.139 33.3299 767.913 30.4011C772.687 27.443 778.295 25.9639 784.739 25.9639C788.898 25.9639 792.822 26.6376 796.513 27.9848C800.232 29.3028 803.513 31.3529 806.354 34.1353C809.224 36.9177 811.479 40.4616 813.119 44.7669C814.759 49.043 815.579 54.1391 815.579 60.0553V64.9318H760.269V54.2123H800.335C800.305 51.1664 799.646 48.4572 798.358 46.0849C797.069 43.6833 795.268 41.7942 792.954 40.4176C790.67 39.0411 788.004 38.3528 784.958 38.3528C781.708 38.3528 778.852 39.1436 776.392 40.7251C773.932 42.2774 772.013 44.3276 770.637 46.8757C769.289 49.3944 768.601 52.1622 768.572 55.1788V64.5364C768.572 68.461 769.289 71.8291 770.724 74.6408C772.16 77.4232 774.166 79.5612 776.743 81.0549C779.32 82.5193 782.337 83.2515 785.793 83.2515C788.107 83.2515 790.201 82.9294 792.076 82.285C793.95 81.6114 795.575 80.6302 796.952 79.3416C798.329 78.0529 799.368 76.4567 800.071 74.5529L814.92 76.2224C813.983 80.147 812.196 83.5737 809.56 86.5025C806.954 89.402 803.615 91.6572 799.544 93.2681C795.473 94.8496 790.816 95.6404 785.574 95.6404Z" fill="#E5E5F6" fill-opacity="0.32"/>
<path d="M785.574 95.6404C778.808 95.6404 772.965 94.2346 768.045 91.4229C763.153 88.582 759.39 84.5695 756.754 79.3855C754.118 74.1722 752.8 68.0363 752.8 60.9779C752.8 54.0366 754.118 47.9447 756.754 42.7021C759.419 37.4302 763.139 33.3299 767.913 30.4011C772.687 27.443 778.295 25.9639 784.739 25.9639C788.898 25.9639 792.822 26.6376 796.513 27.9848C800.232 29.3028 803.513 31.3529 806.354 34.1353C809.224 36.9177 811.479 40.4616 813.119 44.7669C814.759 49.043 815.579 54.1391 815.579 60.0553V64.9318H760.269V54.2123H800.335C800.305 51.1664 799.646 48.4572 798.358 46.0849C797.069 43.6833 795.268 41.7942 792.954 40.4176C790.67 39.0411 788.004 38.3528 784.958 38.3528C781.708 38.3528 778.852 39.1436 776.392 40.7251C773.932 42.2774 772.013 44.3276 770.637 46.8757C769.289 49.3944 768.601 52.1622 768.572 55.1788V64.5364C768.572 68.461 769.289 71.8291 770.724 74.6408C772.16 77.4232 774.166 79.5612 776.743 81.0549C779.32 82.5193 782.337 83.2515 785.793 83.2515C788.107 83.2515 790.201 82.9294 792.076 82.285C793.95 81.6114 795.575 80.6302 796.952 79.3416C798.329 78.0529 799.368 76.4567 800.071 74.5529L814.92 76.2224C813.983 80.147 812.196 83.5737 809.56 86.5025C806.954 89.402 803.615 91.6572 799.544 93.2681C795.473 94.8496 790.816 95.6404 785.574 95.6404Z" fill="url(#paint10_linear_248_662)" fill-opacity="0.64"/>
<path d="M844.937 54.7835V94.3224H829.034V26.8426H844.234V38.3089H845.025C846.577 34.5307 849.052 31.5287 852.449 29.3028C855.876 27.0769 860.108 25.9639 865.146 25.9639C869.803 25.9639 873.859 26.9597 877.315 28.9513C880.8 30.9429 883.495 33.8278 885.398 37.606C887.331 41.3841 888.283 45.9677 888.254 51.3567V94.3224H872.351V53.8169C872.351 49.3066 871.179 45.7774 868.836 43.2293C866.522 40.6812 863.315 39.4072 859.215 39.4072C856.432 39.4072 853.958 40.0222 851.79 41.2523C849.652 42.4531 847.968 44.1958 846.738 46.4803C845.537 48.7647 844.937 51.5325 844.937 54.7835Z" fill="#E5E5F6" fill-opacity="0.32"/>
<path d="M844.937 54.7835V94.3224H829.034V26.8426H844.234V38.3089H845.025C846.577 34.5307 849.052 31.5287 852.449 29.3028C855.876 27.0769 860.108 25.9639 865.146 25.9639C869.803 25.9639 873.859 26.9597 877.315 28.9513C880.8 30.9429 883.495 33.8278 885.398 37.606C887.331 41.3841 888.283 45.9677 888.254 51.3567V94.3224H872.351V53.8169C872.351 49.3066 871.179 45.7774 868.836 43.2293C866.522 40.6812 863.315 39.4072 859.215 39.4072C856.432 39.4072 853.958 40.0222 851.79 41.2523C849.652 42.4531 847.968 44.1958 846.738 46.4803C845.537 48.7647 844.937 51.5325 844.937 54.7835Z" fill="url(#paint11_linear_248_662)" fill-opacity="0.64"/>
<path d="M938.117 26.8426V39.1436H899.325V26.8426H938.117ZM908.902 10.6755H924.806V74.0258C924.806 76.1638 925.128 77.8039 925.772 78.9462C926.446 80.0591 927.324 80.8206 928.408 81.2306C929.492 81.6407 930.693 81.8457 932.01 81.8457C933.006 81.8457 933.914 81.7725 934.734 81.626C935.584 81.4796 936.228 81.3478 936.667 81.2306L939.347 93.6635C938.498 93.9563 937.282 94.2785 935.701 94.63C934.149 94.9814 932.245 95.1864 929.99 95.245C926.006 95.3622 922.419 94.7618 919.226 93.4438C916.034 92.0965 913.5 90.0171 911.626 87.2054C909.781 84.3938 908.873 80.8792 908.902 76.6617V10.6755Z" fill="#E5E5F6" fill-opacity="0.32"/>
<path d="M938.117 26.8426V39.1436H899.325V26.8426H938.117ZM908.902 10.6755H924.806V74.0258C924.806 76.1638 925.128 77.8039 925.772 78.9462C926.446 80.0591 927.324 80.8206 928.408 81.2306C929.492 81.6407 930.693 81.8457 932.01 81.8457C933.006 81.8457 933.914 81.7725 934.734 81.626C935.584 81.4796 936.228 81.3478 936.667 81.2306L939.347 93.6635C938.498 93.9563 937.282 94.2785 935.701 94.63C934.149 94.9814 932.245 95.1864 929.99 95.245C926.006 95.3622 922.419 94.7618 919.226 93.4438C916.034 92.0965 913.5 90.0171 911.626 87.2054C909.781 84.3938 908.873 80.8792 908.902 76.6617V10.6755Z" fill="url(#paint12_linear_248_662)" fill-opacity="0.64"/>
<path d="M1043.08 33.0809C1042.35 30.7086 1041.34 28.5852 1040.05 26.7108C1038.79 24.807 1037.27 23.1816 1035.48 21.8343C1033.72 20.487 1031.7 19.4766 1029.42 18.803C1027.13 18.1001 1024.65 17.7486 1021.95 17.7486C1017.12 17.7486 1012.81 18.9641 1009.03 21.395C1005.26 23.8259 1002.28 27.399 1000.12 32.1144C997.978 36.8005 996.909 42.5117 996.909 49.248C996.909 56.0428 997.978 61.798 1000.12 66.5134C1002.25 71.2287 1005.23 74.8165 1009.03 77.2767C1012.84 79.7077 1017.26 80.9231 1022.3 80.9231C1026.87 80.9231 1030.82 80.0445 1034.16 78.2872C1037.53 76.5299 1040.12 74.0404 1041.94 70.8187C1043.76 67.5677 1044.66 63.7603 1044.66 59.3963L1048.35 59.9675H1023.93V47.2271H1060.44V58.0344C1060.44 65.7372 1058.8 72.4003 1055.51 78.0236C1052.23 83.6469 1047.72 87.9816 1041.98 91.0275C1036.24 94.0442 1029.65 95.5525 1022.21 95.5525C1013.93 95.5525 1006.65 93.6927 1000.38 89.9731C994.142 86.2243 989.265 80.9085 985.751 74.0258C982.265 67.1138 980.523 58.9131 980.523 49.4237C980.523 42.1603 981.548 35.6729 983.598 29.9618C985.677 24.2506 988.577 19.4034 992.296 15.4202C996.016 11.4077 1000.38 8.36176 1005.39 6.2823C1010.4 4.17356 1015.84 3.11919 1021.73 3.11919C1026.71 3.11919 1031.35 3.85139 1035.66 5.3158C1039.96 6.75091 1043.79 8.80108 1047.12 11.4663C1050.49 14.1315 1053.26 17.2946 1055.43 20.9557C1057.59 24.6167 1059.01 28.6584 1059.69 33.0809H1043.08Z" fill="#E5E5F6" fill-opacity="0.32"/>
<path d="M1043.08 33.0809C1042.35 30.7086 1041.34 28.5852 1040.05 26.7108C1038.79 24.807 1037.27 23.1816 1035.48 21.8343C1033.72 20.487 1031.7 19.4766 1029.42 18.803C1027.13 18.1001 1024.65 17.7486 1021.95 17.7486C1017.12 17.7486 1012.81 18.9641 1009.03 21.395C1005.26 23.8259 1002.28 27.399 1000.12 32.1144C997.978 36.8005 996.909 42.5117 996.909 49.248C996.909 56.0428 997.978 61.798 1000.12 66.5134C1002.25 71.2287 1005.23 74.8165 1009.03 77.2767C1012.84 79.7077 1017.26 80.9231 1022.3 80.9231C1026.87 80.9231 1030.82 80.0445 1034.16 78.2872C1037.53 76.5299 1040.12 74.0404 1041.94 70.8187C1043.76 67.5677 1044.66 63.7603 1044.66 59.3963L1048.35 59.9675H1023.93V47.2271H1060.44V58.0344C1060.44 65.7372 1058.8 72.4003 1055.51 78.0236C1052.23 83.6469 1047.72 87.9816 1041.98 91.0275C1036.24 94.0442 1029.65 95.5525 1022.21 95.5525C1013.93 95.5525 1006.65 93.6927 1000.38 89.9731C994.142 86.2243 989.265 80.9085 985.751 74.0258C982.265 67.1138 980.523 58.9131 980.523 49.4237C980.523 42.1603 981.548 35.6729 983.598 29.9618C985.677 24.2506 988.577 19.4034 992.296 15.4202C996.016 11.4077 1000.38 8.36176 1005.39 6.2823C1010.4 4.17356 1015.84 3.11919 1021.73 3.11919C1026.71 3.11919 1031.35 3.85139 1035.66 5.3158C1039.96 6.75091 1043.79 8.80108 1047.12 11.4663C1050.49 14.1315 1053.26 17.2946 1055.43 20.9557C1057.59 24.6167 1059.01 28.6584 1059.69 33.0809H1043.08Z" fill="url(#paint13_linear_248_662)" fill-opacity="0.64"/>
<path d="M1075.49 94.3224V26.8426H1090.91V38.0892H1091.62C1092.85 34.1939 1094.95 31.1919 1097.94 29.0831C1100.96 26.9451 1104.4 25.8761 1108.27 25.8761C1109.15 25.8761 1110.13 25.92 1111.21 26.0079C1112.32 26.0664 1113.25 26.1689 1113.98 26.3154V40.9448C1113.3 40.7105 1112.24 40.5055 1110.77 40.3298C1109.34 40.1247 1107.94 40.0222 1106.6 40.0222C1103.7 40.0222 1101.09 40.6519 1098.78 41.9113C1096.49 43.1414 1094.69 44.8548 1093.37 47.0514C1092.06 49.248 1091.4 51.7814 1091.4 54.6517V94.3224H1075.49Z" fill="#E5E5F6" fill-opacity="0.32"/>
<path d="M1075.49 94.3224V26.8426H1090.91V38.0892H1091.62C1092.85 34.1939 1094.95 31.1919 1097.94 29.0831C1100.96 26.9451 1104.4 25.8761 1108.27 25.8761C1109.15 25.8761 1110.13 25.92 1111.21 26.0079C1112.32 26.0664 1113.25 26.1689 1113.98 26.3154V40.9448C1113.3 40.7105 1112.24 40.5055 1110.77 40.3298C1109.34 40.1247 1107.94 40.0222 1106.6 40.0222C1103.7 40.0222 1101.09 40.6519 1098.78 41.9113C1096.49 43.1414 1094.69 44.8548 1093.37 47.0514C1092.06 49.248 1091.4 51.7814 1091.4 54.6517V94.3224H1075.49Z" fill="url(#paint14_linear_248_662)" fill-opacity="0.64"/>
<path d="M1151.2 95.6404C1144.61 95.6404 1138.9 94.1906 1134.07 91.2911C1129.23 88.3916 1125.48 84.3352 1122.82 79.1219C1120.18 73.9086 1118.87 67.8167 1118.87 60.8461C1118.87 53.8755 1120.18 47.7689 1122.82 42.5264C1125.48 37.2838 1129.23 33.2127 1134.07 30.3132C1138.9 27.4137 1144.61 25.9639 1151.2 25.9639C1157.79 25.9639 1163.5 27.4137 1168.33 30.3132C1173.17 33.2127 1176.9 37.2838 1179.54 42.5264C1182.2 47.7689 1183.53 53.8755 1183.53 60.8461C1183.53 67.8167 1182.2 73.9086 1179.54 79.1219C1176.9 84.3352 1173.17 88.3916 1168.33 91.2911C1163.5 94.1906 1157.79 95.6404 1151.2 95.6404ZM1151.29 82.9001C1154.86 82.9001 1157.85 81.9189 1160.25 79.9566C1162.65 77.965 1164.44 75.2998 1165.61 71.9609C1166.81 68.6221 1167.41 64.9025 1167.41 60.8022C1167.41 56.6725 1166.81 52.9383 1165.61 49.5995C1164.44 46.2313 1162.65 43.5515 1160.25 41.5599C1157.85 39.5683 1154.86 38.5725 1151.29 38.5725C1147.63 38.5725 1144.58 39.5683 1142.15 41.5599C1139.75 43.5515 1137.95 46.2313 1136.75 49.5995C1135.57 52.9383 1134.99 56.6725 1134.99 60.8022C1134.99 64.9025 1135.57 68.6221 1136.75 71.9609C1137.95 75.2998 1139.75 77.965 1142.15 79.9566C1144.58 81.9189 1147.63 82.9001 1151.29 82.9001Z" fill="#E5E5F6" fill-opacity="0.32"/>
<path d="M1151.2 95.6404C1144.61 95.6404 1138.9 94.1906 1134.07 91.2911C1129.23 88.3916 1125.48 84.3352 1122.82 79.1219C1120.18 73.9086 1118.87 67.8167 1118.87 60.8461C1118.87 53.8755 1120.18 47.7689 1122.82 42.5264C1125.48 37.2838 1129.23 33.2127 1134.07 30.3132C1138.9 27.4137 1144.61 25.9639 1151.2 25.9639C1157.79 25.9639 1163.5 27.4137 1168.33 30.3132C1173.17 33.2127 1176.9 37.2838 1179.54 42.5264C1182.2 47.7689 1183.53 53.8755 1183.53 60.8461C1183.53 67.8167 1182.2 73.9086 1179.54 79.1219C1176.9 84.3352 1173.17 88.3916 1168.33 91.2911C1163.5 94.1906 1157.79 95.6404 1151.2 95.6404ZM1151.29 82.9001C1154.86 82.9001 1157.85 81.9189 1160.25 79.9566C1162.65 77.965 1164.44 75.2998 1165.61 71.9609C1166.81 68.6221 1167.41 64.9025 1167.41 60.8022C1167.41 56.6725 1166.81 52.9383 1165.61 49.5995C1164.44 46.2313 1162.65 43.5515 1160.25 41.5599C1157.85 39.5683 1154.86 38.5725 1151.29 38.5725C1147.63 38.5725 1144.58 39.5683 1142.15 41.5599C1139.75 43.5515 1137.95 46.2313 1136.75 49.5995C1135.57 52.9383 1134.99 56.6725 1134.99 60.8022C1134.99 64.9025 1135.57 68.6221 1136.75 71.9609C1137.95 75.2998 1139.75 77.965 1142.15 79.9566C1144.58 81.9189 1147.63 82.9001 1151.29 82.9001Z" fill="url(#paint15_linear_248_662)" fill-opacity="0.64"/>
<path d="M1240.04 65.9422V26.8426H1255.94V94.3224H1240.52V82.3289H1239.82C1238.3 86.1071 1235.79 89.197 1232.31 91.5986C1228.85 94.0003 1224.59 95.2011 1219.52 95.2011C1215.1 95.2011 1211.19 94.2199 1207.79 92.2576C1204.43 90.266 1201.79 87.3811 1199.89 83.603C1197.98 79.7955 1197.03 75.1973 1197.03 69.8083V26.8426H1212.93V67.3481C1212.93 71.6241 1214.11 75.0216 1216.45 77.5403C1218.79 80.0591 1221.87 81.3185 1225.68 81.3185C1228.02 81.3185 1230.29 80.7474 1232.48 79.6051C1234.68 78.4629 1236.48 76.7642 1237.89 74.509C1239.32 72.2245 1240.04 69.3689 1240.04 65.9422Z" fill="#E5E5F6" fill-opacity="0.32"/>
<path d="M1240.04 65.9422V26.8426H1255.94V94.3224H1240.52V82.3289H1239.82C1238.3 86.1071 1235.79 89.197 1232.31 91.5986C1228.85 94.0003 1224.59 95.2011 1219.52 95.2011C1215.1 95.2011 1211.19 94.2199 1207.79 92.2576C1204.43 90.266 1201.79 87.3811 1199.89 83.603C1197.98 79.7955 1197.03 75.1973 1197.03 69.8083V26.8426H1212.93V67.3481C1212.93 71.6241 1214.11 75.0216 1216.45 77.5403C1218.79 80.0591 1221.87 81.3185 1225.68 81.3185C1228.02 81.3185 1230.29 80.7474 1232.48 79.6051C1234.68 78.4629 1236.48 76.7642 1237.89 74.509C1239.32 72.2245 1240.04 69.3689 1240.04 65.9422Z" fill="url(#paint16_linear_248_662)" fill-opacity="0.64"/>
<path d="M1272.3 119.627V26.8426H1287.94V38.0014H1288.86C1289.68 36.3612 1290.84 34.6186 1292.33 32.7734C1293.83 30.899 1295.85 29.3028 1298.39 27.9848C1300.94 26.6376 1304.19 25.9639 1308.15 25.9639C1313.36 25.9639 1318.06 27.2965 1322.25 29.9618C1326.47 32.5977 1329.81 36.5077 1332.27 41.6917C1334.76 46.8464 1336 53.1726 1336 60.6704C1336 68.0803 1334.78 74.3772 1332.35 79.5612C1329.92 84.7452 1326.61 88.6991 1322.42 91.4229C1318.24 94.1467 1313.49 95.5086 1308.19 95.5086C1304.32 95.5086 1301.12 94.8643 1298.57 93.5756C1296.02 92.2869 1293.97 90.7346 1292.42 88.9188C1290.9 87.0736 1289.71 85.331 1288.86 83.6908H1288.2V119.627H1272.3ZM1287.89 60.5825C1287.89 64.9464 1288.51 68.7685 1289.74 72.0488C1291 75.3291 1292.8 77.8918 1295.14 79.7369C1297.52 81.5528 1300.39 82.4607 1303.75 82.4607C1307.27 82.4607 1310.21 81.5235 1312.58 79.6491C1314.96 77.7453 1316.74 75.1534 1317.94 71.8731C1319.17 68.5635 1319.79 64.8 1319.79 60.5825C1319.79 56.3943 1319.19 52.6747 1317.99 49.4237C1316.79 46.1727 1315 43.6247 1312.63 41.7795C1310.26 39.9344 1307.3 39.0118 1303.75 39.0118C1300.36 39.0118 1297.47 39.9051 1295.1 41.6917C1292.73 43.4782 1290.93 45.9824 1289.7 49.2041C1288.49 52.4258 1287.89 56.2186 1287.89 60.5825Z" fill="#E5E5F6" fill-opacity="0.32"/>
<path d="M1272.3 119.627V26.8426H1287.94V38.0014H1288.86C1289.68 36.3612 1290.84 34.6186 1292.33 32.7734C1293.83 30.899 1295.85 29.3028 1298.39 27.9848C1300.94 26.6376 1304.19 25.9639 1308.15 25.9639C1313.36 25.9639 1318.06 27.2965 1322.25 29.9618C1326.47 32.5977 1329.81 36.5077 1332.27 41.6917C1334.76 46.8464 1336 53.1726 1336 60.6704C1336 68.0803 1334.78 74.3772 1332.35 79.5612C1329.92 84.7452 1326.61 88.6991 1322.42 91.4229C1318.24 94.1467 1313.49 95.5086 1308.19 95.5086C1304.32 95.5086 1301.12 94.8643 1298.57 93.5756C1296.02 92.2869 1293.97 90.7346 1292.42 88.9188C1290.9 87.0736 1289.71 85.331 1288.86 83.6908H1288.2V119.627H1272.3ZM1287.89 60.5825C1287.89 64.9464 1288.51 68.7685 1289.74 72.0488C1291 75.3291 1292.8 77.8918 1295.14 79.7369C1297.52 81.5528 1300.39 82.4607 1303.75 82.4607C1307.27 82.4607 1310.21 81.5235 1312.58 79.6491C1314.96 77.7453 1316.74 75.1534 1317.94 71.8731C1319.17 68.5635 1319.79 64.8 1319.79 60.5825C1319.79 56.3943 1319.19 52.6747 1317.99 49.4237C1316.79 46.1727 1315 43.6247 1312.63 41.7795C1310.26 39.9344 1307.3 39.0118 1303.75 39.0118C1300.36 39.0118 1297.47 39.9051 1295.1 41.6917C1292.73 43.4782 1290.93 45.9824 1289.7 49.2041C1288.49 52.4258 1287.89 56.2186 1287.89 60.5825Z" fill="url(#paint17_linear_248_662)" fill-opacity="0.64"/>
</g>
<defs>
<filter id="filter0_n_248_662" x="0" y="0" width="1336" height="119.627" filterUnits="userSpaceOnUse" color-interpolation-filters="sRGB">
<feFlood flood-opacity="0" result="BackgroundImageFix"/>
<feBlend mode="normal" in="SourceGraphic" in2="BackgroundImageFix" result="shape"/>
<feTurbulence type="fractalNoise" baseFrequency="4 4" stitchTiles="stitch" numOctaves="3" result="noise" seed="3960" />
<feColorMatrix in="noise" type="luminanceToAlpha" result="alphaNoise" />
<feComponentTransfer in="alphaNoise" result="coloredNoise1">
<feFuncA type="discrete" tableValues="1 1 1 1 1 1 1 1 1 1 1 1 1 1 1 1 1 1 1 1 1 1 1 1 1 1 1 1 1 1 1 1 1 1 1 1 1 1 1 1 1 1 1 1 1 1 1 1 1 1 1 0 0 0 0 0 0 0 0 0 0 0 0 0 0 0 0 0 0 0 0 0 0 0 0 0 0 0 0 0 0 0 0 0 0 0 0 0 0 0 0 0 0 0 0 0 0 0 0 0 "/>
</feComponentTransfer>
<feComposite operator="in" in2="shape" in="coloredNoise1" result="noise1Clipped" />
<feFlood flood-color="rgba(0, 0, 0, 0.5)" result="color1Flood" />
<feComposite operator="in" in2="noise1Clipped" in="color1Flood" result="color1" />
<feMerge result="effect1_noise_248_662">
<feMergeNode in="shape" />
<feMergeNode in="color1" />
</feMerge>
</filter>
<linearGradient id="paint0_linear_248_662" x1="691.905" y1="112.73" x2="691.905" y2="-11.2124" gradientUnits="userSpaceOnUse">
<stop stop-color="#121212" stop-opacity="0.32"/>
<stop offset="1" stop-color="#121212"/>
</linearGradient>
<linearGradient id="paint1_linear_248_662" x1="691.905" y1="112.73" x2="691.905" y2="-11.2124" gradientUnits="userSpaceOnUse">
<stop stop-color="#121212" stop-opacity="0.32"/>
<stop offset="1" stop-color="#121212"/>
</linearGradient>
<linearGradient id="paint2_linear_248_662" x1="691.905" y1="112.73" x2="691.905" y2="-11.2124" gradientUnits="userSpaceOnUse">
<stop stop-color="#121212" stop-opacity="0.32"/>
<stop offset="1" stop-color="#121212"/>
</linearGradient>
<linearGradient id="paint3_linear_248_662" x1="691.905" y1="112.73" x2="691.905" y2="-11.2124" gradientUnits="userSpaceOnUse">
<stop stop-color="#121212" stop-opacity="0.32"/>
<stop offset="1" stop-color="#121212"/>
</linearGradient>
<linearGradient id="paint4_linear_248_662" x1="691.905" y1="112.73" x2="691.905" y2="-11.2124" gradientUnits="userSpaceOnUse">
<stop stop-color="#121212" stop-opacity="0.32"/>
<stop offset="1" stop-color="#121212"/>
</linearGradient>
<linearGradient id="paint5_linear_248_662" x1="691.905" y1="112.73" x2="691.905" y2="-11.2124" gradientUnits="userSpaceOnUse">
<stop stop-color="#121212" stop-opacity="0.32"/>
<stop offset="1" stop-color="#121212"/>
</linearGradient>
<linearGradient id="paint6_linear_248_662" x1="691.905" y1="112.73" x2="691.905" y2="-11.2124" gradientUnits="userSpaceOnUse">
<stop stop-color="#121212" stop-opacity="0.32"/>
<stop offset="1" stop-color="#121212"/>
</linearGradient>
<linearGradient id="paint7_linear_248_662" x1="691.905" y1="112.73" x2="691.905" y2="-11.2124" gradientUnits="userSpaceOnUse">
<stop stop-color="#121212" stop-opacity="0.32"/>
<stop offset="1" stop-color="#121212"/>
</linearGradient>
<linearGradient id="paint8_linear_248_662" x1="691.905" y1="112.73" x2="691.905" y2="-11.2124" gradientUnits="userSpaceOnUse">
<stop stop-color="#121212" stop-opacity="0.32"/>
<stop offset="1" stop-color="#121212"/>
</linearGradient>
<linearGradient id="paint9_linear_248_662" x1="691.905" y1="112.73" x2="691.905" y2="-11.2124" gradientUnits="userSpaceOnUse">
<stop stop-color="#121212" stop-opacity="0.32"/>
<stop offset="1" stop-color="#121212"/>
</linearGradient>
<linearGradient id="paint10_linear_248_662" x1="691.905" y1="112.73" x2="691.905" y2="-11.2124" gradientUnits="userSpaceOnUse">
<stop stop-color="#121212" stop-opacity="0.32"/>
<stop offset="1" stop-color="#121212"/>
</linearGradient>
<linearGradient id="paint11_linear_248_662" x1="691.905" y1="112.73" x2="691.905" y2="-11.2124" gradientUnits="userSpaceOnUse">
<stop stop-color="#121212" stop-opacity="0.32"/>
<stop offset="1" stop-color="#121212"/>
</linearGradient>
<linearGradient id="paint12_linear_248_662" x1="691.905" y1="112.73" x2="691.905" y2="-11.2124" gradientUnits="userSpaceOnUse">
<stop stop-color="#121212" stop-opacity="0.32"/>
<stop offset="1" stop-color="#121212"/>
</linearGradient>
<linearGradient id="paint13_linear_248_662" x1="691.905" y1="112.73" x2="691.905" y2="-11.2124" gradientUnits="userSpaceOnUse">
<stop stop-color="#121212" stop-opacity="0.32"/>
<stop offset="1" stop-color="#121212"/>
</linearGradient>
<linearGradient id="paint14_linear_248_662" x1="691.905" y1="112.73" x2="691.905" y2="-11.2124" gradientUnits="userSpaceOnUse">
<stop stop-color="#121212" stop-opacity="0.32"/>
<stop offset="1" stop-color="#121212"/>
</linearGradient>
<linearGradient id="paint15_linear_248_662" x1="691.905" y1="112.73" x2="691.905" y2="-11.2124" gradientUnits="userSpaceOnUse">
<stop stop-color="#121212" stop-opacity="0.32"/>
<stop offset="1" stop-color="#121212"/>
</linearGradient>
<linearGradient id="paint16_linear_248_662" x1="691.905" y1="112.73" x2="691.905" y2="-11.2124" gradientUnits="userSpaceOnUse">
<stop stop-color="#121212" stop-opacity="0.32"/>
<stop offset="1" stop-color="#121212"/>
</linearGradient>
<linearGradient id="paint17_linear_248_662" x1="691.905" y1="112.73" x2="691.905" y2="-11.2124" gradientUnits="userSpaceOnUse">
<stop stop-color="#121212" stop-opacity="0.32"/>
<stop offset="1" stop-color="#121212"/>
</linearGradient>
</defs>
</svg>
