<svg width="512" height="512" viewBox="0 0 512 512" fill="none" xmlns="http://www.w3.org/2000/svg">
<rect width="512" height="512" rx="48" fill="#121212"/>
<path d="M327.277 149.006V149.097H381.475V94H327.187V149.006H327.277Z" fill="white"/>
<path d="M327.277 304.788C327.277 324.469 319.574 343.343 305.862 357.26C292.151 371.176 273.553 378.994 254.162 378.994C234.771 378.994 216.174 371.176 202.462 357.26C188.75 343.343 181.047 324.469 181.047 304.788V223.212C181.071 203.539 188.782 184.678 202.488 170.767C216.195 156.856 234.778 149.03 254.162 149.006H272.99V94H254.162C220.408 94.0361 188.046 107.661 164.178 131.885C140.31 156.109 126.885 188.954 126.85 223.212V304.788C126.85 339.057 140.263 371.923 164.139 396.155C188.014 420.387 220.397 434 254.162 434C287.927 434 320.31 420.387 344.186 396.155C368.061 371.923 381.475 339.057 381.475 304.788V204.103H327.277V304.788Z" fill="white"/>
</svg>
