<svg width="14" height="14" viewBox="0 0 14 14" fill="none" xmlns="http://www.w3.org/2000/svg">
<path d="M6.41667 1.75L2.91667 1.75C2.60725 1.75 2.3105 1.87292 2.09171 2.09171C1.87292 2.3105 1.75 2.60725 1.75 2.91667L1.75 11.0833C1.75 11.3928 1.87292 11.6895 2.09171 11.9083C2.3105 12.1271 2.60725 12.25 2.91667 12.25L11.0833 12.25C11.3928 12.25 11.6895 12.1271 11.9083 11.9083C12.1271 11.6895 12.25 11.3928 12.25 11.0833L12.25 7.58333M12.25 1.75L7 7M12.25 1.75L8.75 1.75M12.25 1.75L12.25 5.25" stroke="white" stroke-opacity="0.75" stroke-width="1.5" stroke-linecap="round" stroke-linejoin="round"/>
</svg>
